<?xml version="1.0"?>
<svg xmlns="http://www.w3.org/2000/svg" viewBox="240 -60 420 420">
    <g style="stroke: black; stroke-width: 2; stroke-linecap: square;">
        <line x1="300" x2="360" y1="60" y2="60"></line>
        <line x1="360" x2="360" y1="0" y2="60"></line>
        <line x1="300" x2="360" y1="120" y2="120"></line>
        <line x1="360" x2="360" y1="60" y2="120"></line>
        <line x1="300" x2="360" y1="180" y2="180"></line>
        <line x1="360" x2="360" y1="120" y2="180"></line>
        <line x1="300" x2="360" y1="240" y2="240"></line>
        <line x1="360" x2="360" y1="180" y2="240"></line>
        <line x1="360" x2="360" y1="240" y2="300"></line>
        <line x1="360" x2="420" y1="60" y2="60"></line>
        <line x1="420" x2="420" y1="0" y2="60"></line>
        <line x1="360" x2="420" y1="120" y2="120"></line>
        <line x1="420" x2="420" y1="60" y2="120"></line>
        <line x1="360" x2="420" y1="180" y2="180"></line>
        <line x1="420" x2="420" y1="120" y2="180"></line>
        <line x1="360" x2="420" y1="240" y2="240"></line>
        <line x1="420" x2="420" y1="180" y2="240"></line>
        <line x1="420" x2="420" y1="240" y2="300"></line>
        <line x1="420" x2="480" y1="60" y2="60"></line>
        <line x1="480" x2="480" y1="0" y2="60"></line>
        <line x1="420" x2="480" y1="120" y2="120"></line>
        <line x1="480" x2="480" y1="60" y2="120"></line>
        <line x1="420" x2="480" y1="180" y2="180"></line>
        <line x1="480" x2="480" y1="120" y2="180"></line>
        <line x1="420" x2="480" y1="240" y2="240"></line>
        <line x1="480" x2="480" y1="180" y2="240"></line>
        <line x1="480" x2="480" y1="240" y2="300"></line>
        <line x1="480" x2="540" y1="60" y2="60"></line>
        <line x1="540" x2="540" y1="0" y2="60"></line>
        <line x1="480" x2="540" y1="120" y2="120"></line>
        <line x1="540" x2="540" y1="60" y2="120"></line>
        <line x1="480" x2="540" y1="180" y2="180"></line>
        <line x1="540" x2="540" y1="120" y2="180"></line>
        <line x1="480" x2="540" y1="240" y2="240"></line>
        <line x1="540" x2="540" y1="180" y2="240"></line>
        <line x1="540" x2="540" y1="240" y2="300"></line>
        <line x1="540" x2="600" y1="60" y2="60"></line>
        <line x1="540" x2="600" y1="120" y2="120"></line>
        <line x1="540" x2="600" y1="180" y2="180"></line>
        <line x1="540" x2="600" y1="240" y2="240"></line>
    </g>
    <g style="stroke: black; stroke-width: 10; stroke-linejoin: miter; fill: none;">
        <polygon points="296,-4,296,60,296,120,296,180,296,240,296,304,360,304,420,304,480,304,540,304,604,304,604,240,604,180,604,120,604,60,604,-4,540,-4,480,-4,420,-4,360,-4"></polygon>
    </g>
</svg>
