<?xml version="1.0"?>
<svg xmlns="http://www.w3.org/2000/svg" viewBox="-40 -40 260 260">
    <rect x="-40" y="-40" width="260" height="260" fill="#ffffff"></rect>
    <g style="stroke: black; stroke-width: 2; stroke-linecap: square;">
        <line x1="0" x2="60" y1="60" y2="60"></line>
        <line x1="60" x2="60" y1="0" y2="60"></line>
        <line x1="0" x2="60" y1="120" y2="120"></line>
        <line x1="60" x2="60" y1="60" y2="120"></line>
        <line x1="60" x2="60" y1="120" y2="180"></line>
        <line x1="60" x2="120" y1="60" y2="60"></line>
        <line x1="120" x2="120" y1="0" y2="60"></line>
        <line x1="60" x2="120" y1="120" y2="120"></line>
        <line x1="120" x2="120" y1="60" y2="120"></line>
        <line x1="120" x2="120" y1="120" y2="180"></line>
        <line x1="120" x2="180" y1="60" y2="60"></line>
        <line x1="120" x2="180" y1="120" y2="120"></line>
    </g>
    <g style="stroke: black; stroke-width: 10; fill: none;">
        <polygon points="-4,-4,-4,60,-4,120,-4,184,60,184,120,184,184,184,184,120,184,60,184,-4,120,-4,60,-4"></polygon>
    </g>
    <g style="user-select: none; direction: ltr; dominant-baseline: central; text-anchor: middle; font-family: sans-serif;"></g>
    <g style="stroke: blue; stroke-width: 4; stroke-linecap: round;">
        <line x1="90" x2="150" y1="30" y2="30"></line>
        <line x1="30" x2="90" y1="30" y2="30"></line>
        <line x1="30" x2="30" y1="30" y2="90"></line>
        <line x1="30" x2="30" y1="90" y2="150"></line>
    </g>
    <g style="stroke: green; stroke-width: 4; stroke-linecap: round;">
        <line x1="30" x2="90" y1="150" y2="150"></line>
        <line x1="90" x2="150" y1="150" y2="150"></line>
        <line x1="150" x2="150" y1="90" y2="150"></line>
        <line x1="150" x2="150" y1="30" y2="90"></line>
    </g>
    <g style="stroke-dasharray: 7, 3; stroke-dashoffset: 3.5; stroke: rgb(51, 51, 51); stroke-width: 2; stroke-linecap: round; fill: none;">
        <polygon points="60,5,115,5,115,65,175,65,175,120,175,175,120,175,65,175,65,115,5,115,5,60,5,5" style=""></polygon>
    </g>
    <g style="user-select: none; direction: ltr; dominant-baseline: hanging; text-anchor: start; font-family: sans-serif;"></g>
</svg>
